<mxfile host="65bd71144e" modified="2020-10-05T13:16:28.618Z" agent="5.0 (Macintosh; Intel Mac OS X 10_14_6) AppleWebKit/537.36 (KHTML, like Gecko) Code/1.49.3 Chrome/83.0.4103.122 Electron/9.2.1 Safari/537.36" etag="ChGeIfe5a1_EGfheGSjU" version="13.6.5" pages="2">
    <diagram id="WPG67dm-GQmZOcpMoI1Q" name="Data">
        <mxGraphModel dx="4033" dy="3498" grid="1" gridSize="10" guides="1" tooltips="1" connect="1" arrows="1" fold="1" page="1" pageScale="1" pageWidth="827" pageHeight="1169" math="0" shadow="0">
            <root>
                <mxCell id="0"/>
                <mxCell id="1" parent="0"/>
                <mxCell id="wm4JKY3V46k1_lSeWeFr-1" value="Match Map" style="swimlane;fontStyle=0;childLayout=stackLayout;horizontal=1;startSize=26;fillColor=none;horizontalStack=0;resizeParent=1;resizeParentMax=0;resizeLast=0;collapsible=1;marginBottom=0;" parent="1" vertex="1">
                    <mxGeometry x="340" y="360" width="140" height="338" as="geometry"/>
                </mxCell>
                <mxCell id="wm4JKY3V46k1_lSeWeFr-2" value="+ result_team_1" style="text;strokeColor=none;fillColor=none;align=left;verticalAlign=top;spacingLeft=4;spacingRight=4;overflow=hidden;rotatable=0;points=[[0,0.5],[1,0.5]];portConstraint=eastwest;" parent="wm4JKY3V46k1_lSeWeFr-1" vertex="1">
                    <mxGeometry y="26" width="140" height="26" as="geometry"/>
                </mxCell>
                <mxCell id="wm4JKY3V46k1_lSeWeFr-3" value="+ result_team_2" style="text;strokeColor=none;fillColor=none;align=left;verticalAlign=top;spacingLeft=4;spacingRight=4;overflow=hidden;rotatable=0;points=[[0,0.5],[1,0.5]];portConstraint=eastwest;" parent="wm4JKY3V46k1_lSeWeFr-1" vertex="1">
                    <mxGeometry y="52" width="140" height="26" as="geometry"/>
                </mxCell>
                <mxCell id="wm4JKY3V46k1_lSeWeFr-4" value="+ starting_ct" style="text;strokeColor=none;fillColor=none;align=left;verticalAlign=top;spacingLeft=4;spacingRight=4;overflow=hidden;rotatable=0;points=[[0,0.5],[1,0.5]];portConstraint=eastwest;" parent="wm4JKY3V46k1_lSeWeFr-1" vertex="1">
                    <mxGeometry y="78" width="140" height="26" as="geometry"/>
                </mxCell>
                <mxCell id="45" value="+ ct_1" style="text;strokeColor=none;fillColor=none;align=left;verticalAlign=top;spacingLeft=4;spacingRight=4;overflow=hidden;rotatable=0;points=[[0,0.5],[1,0.5]];portConstraint=eastwest;" vertex="1" parent="wm4JKY3V46k1_lSeWeFr-1">
                    <mxGeometry y="104" width="140" height="26" as="geometry"/>
                </mxCell>
                <mxCell id="46" value="+ ct_2" style="text;strokeColor=none;fillColor=none;align=left;verticalAlign=top;spacingLeft=4;spacingRight=4;overflow=hidden;rotatable=0;points=[[0,0.5],[1,0.5]];portConstraint=eastwest;" vertex="1" parent="wm4JKY3V46k1_lSeWeFr-1">
                    <mxGeometry y="130" width="140" height="26" as="geometry"/>
                </mxCell>
                <mxCell id="47" value="+ t_1" style="text;strokeColor=none;fillColor=none;align=left;verticalAlign=top;spacingLeft=4;spacingRight=4;overflow=hidden;rotatable=0;points=[[0,0.5],[1,0.5]];portConstraint=eastwest;" vertex="1" parent="wm4JKY3V46k1_lSeWeFr-1">
                    <mxGeometry y="156" width="140" height="26" as="geometry"/>
                </mxCell>
                <mxCell id="48" value="+ t_2" style="text;strokeColor=none;fillColor=none;align=left;verticalAlign=top;spacingLeft=4;spacingRight=4;overflow=hidden;rotatable=0;points=[[0,0.5],[1,0.5]];portConstraint=eastwest;" vertex="1" parent="wm4JKY3V46k1_lSeWeFr-1">
                    <mxGeometry y="182" width="140" height="26" as="geometry"/>
                </mxCell>
                <mxCell id="49" value="+ rank_1" style="text;strokeColor=none;fillColor=none;align=left;verticalAlign=top;spacingLeft=4;spacingRight=4;overflow=hidden;rotatable=0;points=[[0,0.5],[1,0.5]];portConstraint=eastwest;" vertex="1" parent="wm4JKY3V46k1_lSeWeFr-1">
                    <mxGeometry y="208" width="140" height="26" as="geometry"/>
                </mxCell>
                <mxCell id="50" value="+ rank_2" style="text;strokeColor=none;fillColor=none;align=left;verticalAlign=top;spacingLeft=4;spacingRight=4;overflow=hidden;rotatable=0;points=[[0,0.5],[1,0.5]];portConstraint=eastwest;" vertex="1" parent="wm4JKY3V46k1_lSeWeFr-1">
                    <mxGeometry y="234" width="140" height="26" as="geometry"/>
                </mxCell>
                <mxCell id="51" value="+ map_wins_1" style="text;strokeColor=none;fillColor=none;align=left;verticalAlign=top;spacingLeft=4;spacingRight=4;overflow=hidden;rotatable=0;points=[[0,0.5],[1,0.5]];portConstraint=eastwest;" vertex="1" parent="wm4JKY3V46k1_lSeWeFr-1">
                    <mxGeometry y="260" width="140" height="26" as="geometry"/>
                </mxCell>
                <mxCell id="52" value="+ map_wins_2" style="text;strokeColor=none;fillColor=none;align=left;verticalAlign=top;spacingLeft=4;spacingRight=4;overflow=hidden;rotatable=0;points=[[0,0.5],[1,0.5]];portConstraint=eastwest;" vertex="1" parent="wm4JKY3V46k1_lSeWeFr-1">
                    <mxGeometry y="286" width="140" height="26" as="geometry"/>
                </mxCell>
                <mxCell id="53" value="+ map_winner" style="text;strokeColor=none;fillColor=none;align=left;verticalAlign=top;spacingLeft=4;spacingRight=4;overflow=hidden;rotatable=0;points=[[0,0.5],[1,0.5]];portConstraint=eastwest;" vertex="1" parent="wm4JKY3V46k1_lSeWeFr-1">
                    <mxGeometry y="312" width="140" height="26" as="geometry"/>
                </mxCell>
                <mxCell id="wm4JKY3V46k1_lSeWeFr-5" value="Match" style="swimlane;fontStyle=0;childLayout=stackLayout;horizontal=1;startSize=26;fillColor=none;horizontalStack=0;resizeParent=1;resizeParentMax=0;resizeLast=0;collapsible=1;marginBottom=0;" parent="1" vertex="1">
                    <mxGeometry x="340" y="160" width="140" height="102" as="geometry"/>
                </mxCell>
                <mxCell id="wm4JKY3V46k1_lSeWeFr-6" value="+ ID" style="text;strokeColor=none;fillColor=none;align=left;verticalAlign=top;spacingLeft=4;spacingRight=4;overflow=hidden;rotatable=0;points=[[0,0.5],[1,0.5]];portConstraint=eastwest;" parent="wm4JKY3V46k1_lSeWeFr-5" vertex="1">
                    <mxGeometry y="26" width="140" height="26" as="geometry"/>
                </mxCell>
                <mxCell id="wm4JKY3V46k1_lSeWeFr-7" value="+ date" style="text;strokeColor=none;fillColor=none;align=left;verticalAlign=top;spacingLeft=4;spacingRight=4;overflow=hidden;rotatable=0;points=[[0,0.5],[1,0.5]];portConstraint=eastwest;" parent="wm4JKY3V46k1_lSeWeFr-5" vertex="1">
                    <mxGeometry y="52" width="140" height="26" as="geometry"/>
                </mxCell>
                <mxCell id="wm4JKY3V46k1_lSeWeFr-8" value="+ match_winner" style="text;strokeColor=none;fillColor=none;align=left;verticalAlign=top;spacingLeft=4;spacingRight=4;overflow=hidden;rotatable=0;points=[[0,0.5],[1,0.5]];portConstraint=eastwest;" parent="wm4JKY3V46k1_lSeWeFr-5" vertex="1">
                    <mxGeometry y="78" width="140" height="24" as="geometry"/>
                </mxCell>
                <mxCell id="wm4JKY3V46k1_lSeWeFr-9" value="is_played_in" style="endArrow=none;html=1;entryX=0.5;entryY=1.038;entryDx=0;entryDy=0;entryPerimeter=0;exitX=0.5;exitY=0;exitDx=0;exitDy=0;" parent="1" source="wm4JKY3V46k1_lSeWeFr-1" target="wm4JKY3V46k1_lSeWeFr-8" edge="1">
                    <mxGeometry width="50" height="50" relative="1" as="geometry">
                        <mxPoint x="385" y="340" as="sourcePoint"/>
                        <mxPoint x="435" y="290" as="targetPoint"/>
                    </mxGeometry>
                </mxCell>
                <mxCell id="wm4JKY3V46k1_lSeWeFr-10" value="1..5&amp;nbsp;" style="text;html=1;align=left;verticalAlign=middle;resizable=0;points=[];autosize=1;" parent="1" vertex="1">
                    <mxGeometry x="416" y="338" width="40" height="20" as="geometry"/>
                </mxCell>
                <mxCell id="wm4JKY3V46k1_lSeWeFr-11" value="1" style="text;html=1;align=left;verticalAlign=middle;resizable=0;points=[];autosize=1;" parent="1" vertex="1">
                    <mxGeometry x="416" y="268" width="20" height="20" as="geometry"/>
                </mxCell>
                <mxCell id="wm4JKY3V46k1_lSeWeFr-16" value="belongs_to" style="endArrow=none;html=1;entryX=0;entryY=0.5;entryDx=0;entryDy=0;exitX=0.5;exitY=0;exitDx=0;exitDy=0;" parent="1" source="wm4JKY3V46k1_lSeWeFr-12" target="wm4JKY3V46k1_lSeWeFr-3" edge="1">
                    <mxGeometry width="50" height="50" relative="1" as="geometry">
                        <mxPoint x="240" y="420" as="sourcePoint"/>
                        <mxPoint x="290" y="370" as="targetPoint"/>
                        <Array as="points">
                            <mxPoint x="120" y="425"/>
                        </Array>
                    </mxGeometry>
                </mxCell>
                <mxCell id="wm4JKY3V46k1_lSeWeFr-21" value="has_a" style="endArrow=none;html=1;exitX=0.5;exitY=0;exitDx=0;exitDy=0;entryX=0.5;entryY=1;entryDx=0;entryDy=0;" parent="1" source="wm4JKY3V46k1_lSeWeFr-17" edge="1" target="wm4JKY3V46k1_lSeWeFr-1">
                    <mxGeometry width="50" height="50" relative="1" as="geometry">
                        <mxPoint x="334" y="510" as="sourcePoint"/>
                        <mxPoint x="410" y="710" as="targetPoint"/>
                    </mxGeometry>
                </mxCell>
                <mxCell id="wm4JKY3V46k1_lSeWeFr-22" value="*" style="text;html=1;align=left;verticalAlign=middle;resizable=0;points=[];autosize=1;" parent="1" vertex="1">
                    <mxGeometry x="128" y="499" width="20" height="20" as="geometry"/>
                </mxCell>
                <mxCell id="wm4JKY3V46k1_lSeWeFr-23" value="1" style="text;html=1;align=left;verticalAlign=middle;resizable=0;points=[];autosize=1;" parent="1" vertex="1">
                    <mxGeometry x="318" y="429" width="20" height="20" as="geometry"/>
                </mxCell>
                <mxCell id="wm4JKY3V46k1_lSeWeFr-29" value="Match Team" style="swimlane;fontStyle=0;childLayout=stackLayout;horizontal=1;startSize=26;fillColor=none;horizontalStack=0;resizeParent=1;resizeParentMax=0;resizeLast=0;collapsible=1;marginBottom=0;" parent="1" vertex="1">
                    <mxGeometry x="340" width="140" height="56" as="geometry"/>
                </mxCell>
                <mxCell id="wm4JKY3V46k1_lSeWeFr-35" value="belongs_to" style="endArrow=none;html=1;exitX=0.5;exitY=0;exitDx=0;exitDy=0;entryX=0;entryY=0.5;entryDx=0;entryDy=0;" parent="1" target="wm4JKY3V46k1_lSeWeFr-29" edge="1" source="wm4JKY3V46k1_lSeWeFr-25">
                    <mxGeometry x="0.2655" width="50" height="50" relative="1" as="geometry">
                        <mxPoint x="190" y="152.5" as="sourcePoint"/>
                        <mxPoint x="340" y="65" as="targetPoint"/>
                        <Array as="points">
                            <mxPoint x="120" y="26"/>
                        </Array>
                        <mxPoint as="offset"/>
                    </mxGeometry>
                </mxCell>
                <mxCell id="wm4JKY3V46k1_lSeWeFr-38" value="" style="endArrow=none;html=1;exitX=0;exitY=0.5;exitDx=0;exitDy=0;entryX=0.5;entryY=1;entryDx=0;entryDy=0;" parent="1" source="wm4JKY3V46k1_lSeWeFr-2" target="wm4JKY3V46k1_lSeWeFr-25" edge="1">
                    <mxGeometry width="50" height="50" relative="1" as="geometry">
                        <mxPoint x="120" y="264" as="sourcePoint"/>
                        <mxPoint x="170" y="214" as="targetPoint"/>
                        <Array as="points">
                            <mxPoint x="120" y="399"/>
                        </Array>
                    </mxGeometry>
                </mxCell>
                <mxCell id="wm4JKY3V46k1_lSeWeFr-39" value="*" style="text;html=1;align=right;verticalAlign=middle;resizable=0;points=[];autosize=1;" parent="1" vertex="1">
                    <mxGeometry x="120" y="268" width="20" height="20" as="geometry"/>
                </mxCell>
                <mxCell id="wm4JKY3V46k1_lSeWeFr-41" value="5..5" style="text;html=1;align=right;verticalAlign=middle;resizable=0;points=[];autosize=1;" parent="1" vertex="1">
                    <mxGeometry x="110" y="134" width="40" height="20" as="geometry"/>
                </mxCell>
                <mxCell id="wm4JKY3V46k1_lSeWeFr-42" value="1" style="text;html=1;align=right;verticalAlign=middle;resizable=0;points=[];autosize=1;" parent="1" vertex="1">
                    <mxGeometry x="310" y="32" width="20" height="20" as="geometry"/>
                </mxCell>
                <mxCell id="wm4JKY3V46k1_lSeWeFr-43" value="*" style="text;html=1;align=left;verticalAlign=middle;resizable=0;points=[];autosize=1;" parent="1" vertex="1">
                    <mxGeometry x="320" y="380" width="20" height="20" as="geometry"/>
                </mxCell>
                <mxCell id="wm4JKY3V46k1_lSeWeFr-57" value="1" style="text;html=1;align=left;verticalAlign=middle;resizable=0;points=[];autosize=1;" parent="1" vertex="1">
                    <mxGeometry x="380" y="52" width="20" height="20" as="geometry"/>
                </mxCell>
                <mxCell id="wm4JKY3V46k1_lSeWeFr-58" value="team_2" style="endArrow=none;html=1;entryX=0.75;entryY=1;entryDx=0;entryDy=0;exitX=0.75;exitY=0;exitDx=0;exitDy=0;" parent="1" edge="1" target="wm4JKY3V46k1_lSeWeFr-29" source="wm4JKY3V46k1_lSeWeFr-5">
                    <mxGeometry width="50" height="50" relative="1" as="geometry">
                        <mxPoint x="420" y="140" as="sourcePoint"/>
                        <mxPoint x="438.5" y="104" as="targetPoint"/>
                    </mxGeometry>
                </mxCell>
                <mxCell id="wm4JKY3V46k1_lSeWeFr-59" value="team_1" style="endArrow=none;html=1;entryX=0.25;entryY=1;entryDx=0;entryDy=0;exitX=0.25;exitY=0;exitDx=0;exitDy=0;" parent="1" edge="1" target="wm4JKY3V46k1_lSeWeFr-29" source="wm4JKY3V46k1_lSeWeFr-5">
                    <mxGeometry width="50" height="50" relative="1" as="geometry">
                        <mxPoint x="360" y="150" as="sourcePoint"/>
                        <mxPoint x="390" y="104" as="targetPoint"/>
                    </mxGeometry>
                </mxCell>
                <mxCell id="wm4JKY3V46k1_lSeWeFr-60" value="subset_of" style="endArrow=none;html=1;exitX=0.5;exitY=0;exitDx=0;exitDy=0;entryX=0.5;entryY=1;entryDx=0;entryDy=0;" parent="1" target="wm4JKY3V46k1_lSeWeFr-49" edge="1">
                    <mxGeometry width="50" height="50" relative="1" as="geometry">
                        <mxPoint x="410.5" as="sourcePoint"/>
                        <mxPoint x="410" y="-56" as="targetPoint"/>
                    </mxGeometry>
                </mxCell>
                <mxCell id="wm4JKY3V46k1_lSeWeFr-61" value="1" style="text;html=1;align=left;verticalAlign=middle;resizable=0;points=[];autosize=1;" parent="1" vertex="1">
                    <mxGeometry x="414" y="-102" width="20" height="20" as="geometry"/>
                </mxCell>
                <mxCell id="wm4JKY3V46k1_lSeWeFr-62" value="*" style="text;html=1;align=left;verticalAlign=middle;resizable=0;points=[];autosize=1;" parent="1" vertex="1">
                    <mxGeometry x="414" y="-20" width="20" height="20" as="geometry"/>
                </mxCell>
                <mxCell id="wm4JKY3V46k1_lSeWeFr-63" value="1" style="text;html=1;align=left;verticalAlign=middle;resizable=0;points=[];autosize=1;" parent="1" vertex="1">
                    <mxGeometry x="380" y="140" width="20" height="20" as="geometry"/>
                </mxCell>
                <mxCell id="wm4JKY3V46k1_lSeWeFr-64" value="1" style="text;html=1;align=left;verticalAlign=middle;resizable=0;points=[];autosize=1;" parent="1" vertex="1">
                    <mxGeometry x="450" y="140" width="20" height="20" as="geometry"/>
                </mxCell>
                <mxCell id="wm4JKY3V46k1_lSeWeFr-65" value="1" style="text;html=1;align=left;verticalAlign=middle;resizable=0;points=[];autosize=1;" parent="1" vertex="1">
                    <mxGeometry x="450" y="52" width="20" height="20" as="geometry"/>
                </mxCell>
                <mxCell id="wm4JKY3V46k1_lSeWeFr-68" value="" style="endArrow=none;html=1;entryX=0;entryY=0.5;entryDx=0;entryDy=0;exitX=1;exitY=0.5;exitDx=0;exitDy=0;" parent="1" source="wm4JKY3V46k1_lSeWeFr-27" target="wm4JKY3V46k1_lSeWeFr-7" edge="1">
                    <mxGeometry width="50" height="50" relative="1" as="geometry">
                        <mxPoint x="200" y="219" as="sourcePoint"/>
                        <mxPoint x="330" y="98.25" as="targetPoint"/>
                    </mxGeometry>
                </mxCell>
                <mxCell id="wm4JKY3V46k1_lSeWeFr-69" value="*" style="text;html=1;align=left;verticalAlign=middle;resizable=0;points=[];autosize=1;" parent="1" vertex="1">
                    <mxGeometry x="323" y="207" width="20" height="20" as="geometry"/>
                </mxCell>
                <mxCell id="wm4JKY3V46k1_lSeWeFr-70" value="10" style="text;html=1;align=left;verticalAlign=middle;resizable=0;points=[];autosize=1;" parent="1" vertex="1">
                    <mxGeometry x="195" y="201" width="30" height="20" as="geometry"/>
                </mxCell>
                <mxCell id="wm4JKY3V46k1_lSeWeFr-75" value="belongs_to" style="endArrow=none;html=1;entryX=0.007;entryY=0.115;entryDx=0;entryDy=0;entryPerimeter=0;exitX=1;exitY=0.5;exitDx=0;exitDy=0;" parent="1" target="wm4JKY3V46k1_lSeWeFr-67" edge="1" source="wm4JKY3V46k1_lSeWeFr-8">
                    <mxGeometry width="50" height="50" relative="1" as="geometry">
                        <mxPoint x="500" y="250" as="sourcePoint"/>
                        <mxPoint x="530" y="160" as="targetPoint"/>
                    </mxGeometry>
                </mxCell>
                <mxCell id="wm4JKY3V46k1_lSeWeFr-76" value="*" style="text;html=1;align=left;verticalAlign=middle;resizable=0;points=[];autosize=1;" parent="1" vertex="1">
                    <mxGeometry x="489" y="234" width="20" height="20" as="geometry"/>
                </mxCell>
                <mxCell id="wm4JKY3V46k1_lSeWeFr-77" value="1" style="text;html=1;align=left;verticalAlign=middle;resizable=0;points=[];autosize=1;" parent="1" vertex="1">
                    <mxGeometry x="634" y="285" width="20" height="20" as="geometry"/>
                </mxCell>
                <mxCell id="7ByuXc6SaMkiPh27QTUW-5" value="has_a" style="endArrow=none;html=1;entryX=0;entryY=0.5;entryDx=0;entryDy=0;exitX=1;exitY=0.5;exitDx=0;exitDy=0;" parent="1" target="7ByuXc6SaMkiPh27QTUW-3" edge="1" source="wm4JKY3V46k1_lSeWeFr-6">
                    <mxGeometry width="50" height="50" relative="1" as="geometry">
                        <mxPoint x="480" y="167" as="sourcePoint"/>
                        <mxPoint x="530" y="117" as="targetPoint"/>
                    </mxGeometry>
                </mxCell>
                <mxCell id="7ByuXc6SaMkiPh27QTUW-6" value="1" style="text;html=1;align=left;verticalAlign=middle;resizable=0;points=[];autosize=1;" parent="1" vertex="1">
                    <mxGeometry x="630" y="84" width="20" height="20" as="geometry"/>
                </mxCell>
                <mxCell id="7ByuXc6SaMkiPh27QTUW-9" value="1" style="text;html=1;align=left;verticalAlign=middle;resizable=0;points=[];autosize=1;" parent="1" vertex="1">
                    <mxGeometry x="485" y="168" width="20" height="20" as="geometry"/>
                </mxCell>
                <mxCell id="7ByuXc6SaMkiPh27QTUW-1" value="Veto Process" style="swimlane;fontStyle=0;childLayout=stackLayout;horizontal=1;startSize=26;fillColor=none;horizontalStack=0;resizeParent=1;resizeParentMax=0;resizeLast=0;collapsible=1;marginBottom=0;" parent="1" vertex="1">
                    <mxGeometry x="650" y="56" width="140" height="104" as="geometry"/>
                </mxCell>
                <mxCell id="7ByuXc6SaMkiPh27QTUW-3" value="+ best_of" style="text;strokeColor=none;fillColor=none;align=left;verticalAlign=top;spacingLeft=4;spacingRight=4;overflow=hidden;rotatable=0;points=[[0,0.5],[1,0.5]];portConstraint=eastwest;" parent="7ByuXc6SaMkiPh27QTUW-1" vertex="1">
                    <mxGeometry y="26" width="140" height="26" as="geometry"/>
                </mxCell>
                <mxCell id="3" value="+ system" style="text;strokeColor=none;fillColor=none;align=left;verticalAlign=top;spacingLeft=4;spacingRight=4;overflow=hidden;rotatable=0;points=[[0,0.5],[1,0.5]];portConstraint=eastwest;" vertex="1" parent="7ByuXc6SaMkiPh27QTUW-1">
                    <mxGeometry y="52" width="140" height="26" as="geometry"/>
                </mxCell>
                <mxCell id="56" value="+ left_over" style="text;strokeColor=none;fillColor=none;align=left;verticalAlign=top;spacingLeft=4;spacingRight=4;overflow=hidden;rotatable=0;points=[[0,0.5],[1,0.5]];portConstraint=eastwest;" vertex="1" parent="7ByuXc6SaMkiPh27QTUW-1">
                    <mxGeometry y="78" width="140" height="26" as="geometry"/>
                </mxCell>
                <mxCell id="5" value="" style="endArrow=none;dashed=1;html=1;exitX=1;exitY=0.5;exitDx=0;exitDy=0;" edge="1" parent="1" source="wm4JKY3V46k1_lSeWeFr-44">
                    <mxGeometry width="50" height="50" relative="1" as="geometry">
                        <mxPoint x="39" y="314" as="sourcePoint"/>
                        <mxPoint x="116" y="303" as="targetPoint"/>
                    </mxGeometry>
                </mxCell>
                <mxCell id="wm4JKY3V46k1_lSeWeFr-44" value="Player Performance" style="swimlane;fontStyle=0;childLayout=stackLayout;horizontal=1;startSize=26;fillColor=none;horizontalStack=0;resizeParent=1;resizeParentMax=0;resizeLast=0;collapsible=1;marginBottom=0;" parent="1" vertex="1">
                    <mxGeometry x="-140" y="160" width="140" height="286" as="geometry"/>
                </mxCell>
                <mxCell id="wm4JKY3V46k1_lSeWeFr-45" value="+ kills" style="text;strokeColor=none;fillColor=none;align=left;verticalAlign=top;spacingLeft=4;spacingRight=4;overflow=hidden;rotatable=0;points=[[0,0.5],[1,0.5]];portConstraint=eastwest;" parent="wm4JKY3V46k1_lSeWeFr-44" vertex="1">
                    <mxGeometry y="26" width="140" height="26" as="geometry"/>
                </mxCell>
                <mxCell id="6" value="+ assists" style="text;strokeColor=none;fillColor=none;align=left;verticalAlign=top;spacingLeft=4;spacingRight=4;overflow=hidden;rotatable=0;points=[[0,0.5],[1,0.5]];portConstraint=eastwest;" vertex="1" parent="wm4JKY3V46k1_lSeWeFr-44">
                    <mxGeometry y="52" width="140" height="26" as="geometry"/>
                </mxCell>
                <mxCell id="7" value="+ deaths" style="text;strokeColor=none;fillColor=none;align=left;verticalAlign=top;spacingLeft=4;spacingRight=4;overflow=hidden;rotatable=0;points=[[0,0.5],[1,0.5]];portConstraint=eastwest;" vertex="1" parent="wm4JKY3V46k1_lSeWeFr-44">
                    <mxGeometry y="78" width="140" height="26" as="geometry"/>
                </mxCell>
                <mxCell id="8" value="+ headshots" style="text;strokeColor=none;fillColor=none;align=left;verticalAlign=top;spacingLeft=4;spacingRight=4;overflow=hidden;rotatable=0;points=[[0,0.5],[1,0.5]];portConstraint=eastwest;" vertex="1" parent="wm4JKY3V46k1_lSeWeFr-44">
                    <mxGeometry y="104" width="140" height="26" as="geometry"/>
                </mxCell>
                <mxCell id="9" value="+ flash_assists" style="text;strokeColor=none;fillColor=none;align=left;verticalAlign=top;spacingLeft=4;spacingRight=4;overflow=hidden;rotatable=0;points=[[0,0.5],[1,0.5]];portConstraint=eastwest;" vertex="1" parent="wm4JKY3V46k1_lSeWeFr-44">
                    <mxGeometry y="130" width="140" height="26" as="geometry"/>
                </mxCell>
                <mxCell id="10" value="+ kddiff" style="text;strokeColor=none;fillColor=none;align=left;verticalAlign=top;spacingLeft=4;spacingRight=4;overflow=hidden;rotatable=0;points=[[0,0.5],[1,0.5]];portConstraint=eastwest;" vertex="1" parent="wm4JKY3V46k1_lSeWeFr-44">
                    <mxGeometry y="156" width="140" height="26" as="geometry"/>
                </mxCell>
                <mxCell id="11" value="+ adr" style="text;strokeColor=none;fillColor=none;align=left;verticalAlign=top;spacingLeft=4;spacingRight=4;overflow=hidden;rotatable=0;points=[[0,0.5],[1,0.5]];portConstraint=eastwest;" vertex="1" parent="wm4JKY3V46k1_lSeWeFr-44">
                    <mxGeometry y="182" width="140" height="26" as="geometry"/>
                </mxCell>
                <mxCell id="12" value="+ fkdiff" style="text;strokeColor=none;fillColor=none;align=left;verticalAlign=top;spacingLeft=4;spacingRight=4;overflow=hidden;rotatable=0;points=[[0,0.5],[1,0.5]];portConstraint=eastwest;" vertex="1" parent="wm4JKY3V46k1_lSeWeFr-44">
                    <mxGeometry y="208" width="140" height="26" as="geometry"/>
                </mxCell>
                <mxCell id="13" value="+ kast" style="text;strokeColor=none;fillColor=none;align=left;verticalAlign=top;spacingLeft=4;spacingRight=4;overflow=hidden;rotatable=0;points=[[0,0.5],[1,0.5]];portConstraint=eastwest;" vertex="1" parent="wm4JKY3V46k1_lSeWeFr-44">
                    <mxGeometry y="234" width="140" height="26" as="geometry"/>
                </mxCell>
                <mxCell id="14" value="+ rating" style="text;strokeColor=none;fillColor=none;align=left;verticalAlign=top;spacingLeft=4;spacingRight=4;overflow=hidden;rotatable=0;points=[[0,0.5],[1,0.5]];portConstraint=eastwest;" vertex="1" parent="wm4JKY3V46k1_lSeWeFr-44">
                    <mxGeometry y="260" width="140" height="26" as="geometry"/>
                </mxCell>
                <mxCell id="wm4JKY3V46k1_lSeWeFr-25" value="Player" style="swimlane;fontStyle=0;childLayout=stackLayout;horizontal=1;startSize=26;fillColor=none;horizontalStack=0;resizeParent=1;resizeParentMax=0;resizeLast=0;collapsible=1;marginBottom=0;" parent="1" vertex="1">
                    <mxGeometry x="50" y="160" width="140" height="104" as="geometry"/>
                </mxCell>
                <mxCell id="wm4JKY3V46k1_lSeWeFr-26" value="+ ID" style="text;strokeColor=none;fillColor=none;align=left;verticalAlign=top;spacingLeft=4;spacingRight=4;overflow=hidden;rotatable=0;points=[[0,0.5],[1,0.5]];portConstraint=eastwest;" parent="wm4JKY3V46k1_lSeWeFr-25" vertex="1">
                    <mxGeometry y="26" width="140" height="26" as="geometry"/>
                </mxCell>
                <mxCell id="wm4JKY3V46k1_lSeWeFr-27" value="+ name" style="text;strokeColor=none;fillColor=none;align=left;verticalAlign=top;spacingLeft=4;spacingRight=4;overflow=hidden;rotatable=0;points=[[0,0.5],[1,0.5]];portConstraint=eastwest;" parent="wm4JKY3V46k1_lSeWeFr-25" vertex="1">
                    <mxGeometry y="52" width="140" height="26" as="geometry"/>
                </mxCell>
                <mxCell id="wm4JKY3V46k1_lSeWeFr-28" value="+ country" style="text;strokeColor=none;fillColor=none;align=left;verticalAlign=top;spacingLeft=4;spacingRight=4;overflow=hidden;rotatable=0;points=[[0,0.5],[1,0.5]];portConstraint=eastwest;" parent="wm4JKY3V46k1_lSeWeFr-25" vertex="1">
                    <mxGeometry y="78" width="140" height="26" as="geometry"/>
                </mxCell>
                <mxCell id="17" value="" style="endArrow=none;dashed=1;html=1;exitX=0.5;exitY=0;exitDx=0;exitDy=0;" edge="1" parent="1" source="25">
                    <mxGeometry width="50" height="50" relative="1" as="geometry">
                        <mxPoint x="-70" y="550" as="sourcePoint"/>
                        <mxPoint x="265" y="225" as="targetPoint"/>
                        <Array as="points">
                            <mxPoint x="-70" y="-390"/>
                            <mxPoint x="265" y="-390"/>
                        </Array>
                    </mxGeometry>
                </mxCell>
                <mxCell id="wm4JKY3V46k1_lSeWeFr-12" value="Round" style="swimlane;fontStyle=0;childLayout=stackLayout;horizontal=1;startSize=26;fillColor=none;horizontalStack=0;resizeParent=1;resizeParentMax=0;resizeLast=0;collapsible=1;marginBottom=0;" parent="1" vertex="1">
                    <mxGeometry x="50" y="520" width="140" height="130" as="geometry"/>
                </mxCell>
                <mxCell id="wm4JKY3V46k1_lSeWeFr-13" value="+ money_team_1" style="text;strokeColor=none;fillColor=none;align=left;verticalAlign=top;spacingLeft=4;spacingRight=4;overflow=hidden;rotatable=0;points=[[0,0.5],[1,0.5]];portConstraint=eastwest;" parent="wm4JKY3V46k1_lSeWeFr-12" vertex="1">
                    <mxGeometry y="26" width="140" height="26" as="geometry"/>
                </mxCell>
                <mxCell id="40" value="+ money_team_2" style="text;strokeColor=none;fillColor=none;align=left;verticalAlign=top;spacingLeft=4;spacingRight=4;overflow=hidden;rotatable=0;points=[[0,0.5],[1,0.5]];portConstraint=eastwest;" vertex="1" parent="wm4JKY3V46k1_lSeWeFr-12">
                    <mxGeometry y="52" width="140" height="26" as="geometry"/>
                </mxCell>
                <mxCell id="41" value="+ round_winner" style="text;strokeColor=none;fillColor=none;align=left;verticalAlign=top;spacingLeft=4;spacingRight=4;overflow=hidden;rotatable=0;points=[[0,0.5],[1,0.5]];portConstraint=eastwest;" vertex="1" parent="wm4JKY3V46k1_lSeWeFr-12">
                    <mxGeometry y="78" width="140" height="26" as="geometry"/>
                </mxCell>
                <mxCell id="43" value="+ round_number" style="text;strokeColor=none;fillColor=none;align=left;verticalAlign=top;spacingLeft=4;spacingRight=4;overflow=hidden;rotatable=0;points=[[0,0.5],[1,0.5]];portConstraint=eastwest;" vertex="1" parent="wm4JKY3V46k1_lSeWeFr-12">
                    <mxGeometry y="104" width="140" height="26" as="geometry"/>
                </mxCell>
                <mxCell id="20" value="*" style="text;html=1;align=left;verticalAlign=middle;resizable=0;points=[];autosize=1;" vertex="1" parent="1">
                    <mxGeometry x="416" y="698" width="20" height="20" as="geometry"/>
                </mxCell>
                <mxCell id="21" value="1" style="text;html=1;align=left;verticalAlign=middle;resizable=0;points=[];autosize=1;" vertex="1" parent="1">
                    <mxGeometry x="414" y="810" width="20" height="20" as="geometry"/>
                </mxCell>
                <mxCell id="G9HZLZbe01EVvVtUsMoQ-33" value="removes" style="endArrow=none;html=1;edgeStyle=orthogonalEdgeStyle;exitX=1;exitY=0.5;exitDx=0;exitDy=0;entryX=0.858;entryY=1.021;entryDx=0;entryDy=0;entryPerimeter=0;" edge="1" parent="1" source="wm4JKY3V46k1_lSeWeFr-17" target="G9HZLZbe01EVvVtUsMoQ-42">
                    <mxGeometry relative="1" as="geometry">
                        <mxPoint x="480" y="598" as="sourcePoint"/>
                        <mxPoint x="930" y="130" as="targetPoint"/>
                    </mxGeometry>
                </mxCell>
                <mxCell id="G9HZLZbe01EVvVtUsMoQ-34" value="1" style="edgeLabel;resizable=0;html=1;align=left;verticalAlign=bottom;" connectable="0" vertex="1" parent="G9HZLZbe01EVvVtUsMoQ-33">
                    <mxGeometry x="-1" relative="1" as="geometry"/>
                </mxCell>
                <mxCell id="G9HZLZbe01EVvVtUsMoQ-35" value="*" style="edgeLabel;resizable=0;html=1;align=left;verticalAlign=top;labelPosition=right;verticalLabelPosition=bottom;" connectable="0" vertex="1" parent="G9HZLZbe01EVvVtUsMoQ-33">
                    <mxGeometry x="1" relative="1" as="geometry">
                        <mxPoint x="1.88" as="offset"/>
                    </mxGeometry>
                </mxCell>
                <mxCell id="G9HZLZbe01EVvVtUsMoQ-39" value="is_allowed_to" style="endArrow=none;html=1;edgeStyle=orthogonalEdgeStyle;entryX=0.5;entryY=0;entryDx=0;entryDy=0;" edge="1" parent="1" target="G9HZLZbe01EVvVtUsMoQ-21">
                    <mxGeometry relative="1" as="geometry">
                        <mxPoint x="480" y="20" as="sourcePoint"/>
                        <mxPoint x="640" y="20" as="targetPoint"/>
                    </mxGeometry>
                </mxCell>
                <mxCell id="G9HZLZbe01EVvVtUsMoQ-40" value="1" style="edgeLabel;resizable=0;html=1;align=left;verticalAlign=bottom;" connectable="0" vertex="1" parent="G9HZLZbe01EVvVtUsMoQ-39">
                    <mxGeometry x="-1" relative="1" as="geometry">
                        <mxPoint x="9" y="-4" as="offset"/>
                    </mxGeometry>
                </mxCell>
                <mxCell id="G9HZLZbe01EVvVtUsMoQ-41" value="*" style="edgeLabel;resizable=0;html=1;align=right;verticalAlign=bottom;" connectable="0" vertex="1" parent="G9HZLZbe01EVvVtUsMoQ-39">
                    <mxGeometry x="1" relative="1" as="geometry">
                        <mxPoint x="11" y="-0.02000000000000024" as="offset"/>
                    </mxGeometry>
                </mxCell>
                <mxCell id="75" value="1" style="edgeLabel;resizable=0;html=1;align=right;verticalAlign=bottom;" connectable="0" vertex="1" parent="G9HZLZbe01EVvVtUsMoQ-39">
                    <mxGeometry x="1" relative="1" as="geometry">
                        <mxPoint x="-127" y="38" as="offset"/>
                    </mxGeometry>
                </mxCell>
                <mxCell id="76" value="*" style="edgeLabel;resizable=0;html=1;align=right;verticalAlign=bottom;" connectable="0" vertex="1" parent="G9HZLZbe01EVvVtUsMoQ-39">
                    <mxGeometry x="1" relative="1" as="geometry">
                        <mxPoint x="-75" y="40" as="offset"/>
                    </mxGeometry>
                </mxCell>
                <mxCell id="25" value="Match Performance" style="swimlane;fontStyle=0;childLayout=stackLayout;horizontal=1;startSize=26;fillColor=none;horizontalStack=0;resizeParent=1;resizeParentMax=0;resizeLast=0;collapsible=1;marginBottom=0;" vertex="1" parent="1">
                    <mxGeometry x="-140" y="-360" width="140" height="286" as="geometry"/>
                </mxCell>
                <mxCell id="26" value="+ kills" style="text;strokeColor=none;fillColor=none;align=left;verticalAlign=top;spacingLeft=4;spacingRight=4;overflow=hidden;rotatable=0;points=[[0,0.5],[1,0.5]];portConstraint=eastwest;" vertex="1" parent="25">
                    <mxGeometry y="26" width="140" height="26" as="geometry"/>
                </mxCell>
                <mxCell id="27" value="+ assists" style="text;strokeColor=none;fillColor=none;align=left;verticalAlign=top;spacingLeft=4;spacingRight=4;overflow=hidden;rotatable=0;points=[[0,0.5],[1,0.5]];portConstraint=eastwest;" vertex="1" parent="25">
                    <mxGeometry y="52" width="140" height="26" as="geometry"/>
                </mxCell>
                <mxCell id="28" value="+ deaths" style="text;strokeColor=none;fillColor=none;align=left;verticalAlign=top;spacingLeft=4;spacingRight=4;overflow=hidden;rotatable=0;points=[[0,0.5],[1,0.5]];portConstraint=eastwest;" vertex="1" parent="25">
                    <mxGeometry y="78" width="140" height="26" as="geometry"/>
                </mxCell>
                <mxCell id="29" value="+ headshots" style="text;strokeColor=none;fillColor=none;align=left;verticalAlign=top;spacingLeft=4;spacingRight=4;overflow=hidden;rotatable=0;points=[[0,0.5],[1,0.5]];portConstraint=eastwest;" vertex="1" parent="25">
                    <mxGeometry y="104" width="140" height="26" as="geometry"/>
                </mxCell>
                <mxCell id="30" value="+ flash_assists" style="text;strokeColor=none;fillColor=none;align=left;verticalAlign=top;spacingLeft=4;spacingRight=4;overflow=hidden;rotatable=0;points=[[0,0.5],[1,0.5]];portConstraint=eastwest;" vertex="1" parent="25">
                    <mxGeometry y="130" width="140" height="26" as="geometry"/>
                </mxCell>
                <mxCell id="31" value="+ kddiff" style="text;strokeColor=none;fillColor=none;align=left;verticalAlign=top;spacingLeft=4;spacingRight=4;overflow=hidden;rotatable=0;points=[[0,0.5],[1,0.5]];portConstraint=eastwest;" vertex="1" parent="25">
                    <mxGeometry y="156" width="140" height="26" as="geometry"/>
                </mxCell>
                <mxCell id="32" value="+ adr" style="text;strokeColor=none;fillColor=none;align=left;verticalAlign=top;spacingLeft=4;spacingRight=4;overflow=hidden;rotatable=0;points=[[0,0.5],[1,0.5]];portConstraint=eastwest;" vertex="1" parent="25">
                    <mxGeometry y="182" width="140" height="26" as="geometry"/>
                </mxCell>
                <mxCell id="33" value="+ fkdiff" style="text;strokeColor=none;fillColor=none;align=left;verticalAlign=top;spacingLeft=4;spacingRight=4;overflow=hidden;rotatable=0;points=[[0,0.5],[1,0.5]];portConstraint=eastwest;" vertex="1" parent="25">
                    <mxGeometry y="208" width="140" height="26" as="geometry"/>
                </mxCell>
                <mxCell id="34" value="+ kast" style="text;strokeColor=none;fillColor=none;align=left;verticalAlign=top;spacingLeft=4;spacingRight=4;overflow=hidden;rotatable=0;points=[[0,0.5],[1,0.5]];portConstraint=eastwest;" vertex="1" parent="25">
                    <mxGeometry y="234" width="140" height="26" as="geometry"/>
                </mxCell>
                <mxCell id="35" value="+ rating" style="text;strokeColor=none;fillColor=none;align=left;verticalAlign=top;spacingLeft=4;spacingRight=4;overflow=hidden;rotatable=0;points=[[0,0.5],[1,0.5]];portConstraint=eastwest;" vertex="1" parent="25">
                    <mxGeometry y="260" width="140" height="26" as="geometry"/>
                </mxCell>
                <mxCell id="wm4JKY3V46k1_lSeWeFr-17" value="Map" style="swimlane;fontStyle=0;childLayout=stackLayout;horizontal=1;startSize=26;fillColor=none;horizontalStack=0;resizeParent=1;resizeParentMax=0;resizeLast=0;collapsible=1;marginBottom=0;" parent="1" vertex="1">
                    <mxGeometry x="340" y="832" width="140" height="52" as="geometry"/>
                </mxCell>
                <mxCell id="wm4JKY3V46k1_lSeWeFr-18" value="+ name" style="text;strokeColor=none;fillColor=none;align=left;verticalAlign=top;spacingLeft=4;spacingRight=4;overflow=hidden;rotatable=0;points=[[0,0.5],[1,0.5]];portConstraint=eastwest;" parent="wm4JKY3V46k1_lSeWeFr-17" vertex="1">
                    <mxGeometry y="26" width="140" height="26" as="geometry"/>
                </mxCell>
                <mxCell id="wm4JKY3V46k1_lSeWeFr-66" value="Tournament" style="swimlane;fontStyle=0;childLayout=stackLayout;horizontal=1;startSize=26;fillColor=none;horizontalStack=0;resizeParent=1;resizeParentMax=0;resizeLast=0;collapsible=1;marginBottom=0;" parent="1" vertex="1">
                    <mxGeometry x="650" y="286" width="140" height="78" as="geometry"/>
                </mxCell>
                <mxCell id="wm4JKY3V46k1_lSeWeFr-67" value="+ ID" style="text;strokeColor=none;fillColor=none;align=left;verticalAlign=top;spacingLeft=4;spacingRight=4;overflow=hidden;rotatable=0;points=[[0,0.5],[1,0.5]];portConstraint=eastwest;" parent="wm4JKY3V46k1_lSeWeFr-66" vertex="1">
                    <mxGeometry y="26" width="140" height="26" as="geometry"/>
                </mxCell>
                <mxCell id="57" value="+ name" style="text;strokeColor=none;fillColor=none;align=left;verticalAlign=top;spacingLeft=4;spacingRight=4;overflow=hidden;rotatable=0;points=[[0,0.5],[1,0.5]];portConstraint=eastwest;" vertex="1" parent="wm4JKY3V46k1_lSeWeFr-66">
                    <mxGeometry y="52" width="140" height="26" as="geometry"/>
                </mxCell>
                <mxCell id="wm4JKY3V46k1_lSeWeFr-49" value="Team" style="swimlane;fontStyle=0;childLayout=stackLayout;horizontal=1;startSize=26;fillColor=none;horizontalStack=0;resizeParent=1;resizeParentMax=0;resizeLast=0;collapsible=1;marginBottom=0;" parent="1" vertex="1">
                    <mxGeometry x="340" y="-180" width="140" height="78" as="geometry"/>
                </mxCell>
                <mxCell id="wm4JKY3V46k1_lSeWeFr-50" value="+ ID" style="text;strokeColor=none;fillColor=none;align=left;verticalAlign=top;spacingLeft=4;spacingRight=4;overflow=hidden;rotatable=0;points=[[0,0.5],[1,0.5]];portConstraint=eastwest;" parent="wm4JKY3V46k1_lSeWeFr-49" vertex="1">
                    <mxGeometry y="26" width="140" height="26" as="geometry"/>
                </mxCell>
                <mxCell id="58" value="+ name" style="text;strokeColor=none;fillColor=none;align=left;verticalAlign=top;spacingLeft=4;spacingRight=4;overflow=hidden;rotatable=0;points=[[0,0.5],[1,0.5]];portConstraint=eastwest;" vertex="1" parent="wm4JKY3V46k1_lSeWeFr-49">
                    <mxGeometry y="52" width="140" height="26" as="geometry"/>
                </mxCell>
                <mxCell id="63" value="The money earned at the end of each round depends on the team's performance in the previous round.&lt;br&gt;&lt;br&gt;Said money is then spent on equipment, such as weapons, grenades and protective equipment." style="shape=note;whiteSpace=wrap;html=1;backgroundOutline=1;darkOpacity=0.05;align=center;" vertex="1" parent="1">
                    <mxGeometry x="-310" y="486" width="200" height="170" as="geometry"/>
                </mxCell>
                <mxCell id="64" value="" style="endArrow=none;dashed=1;html=1;exitX=0;exitY=0;exitDx=200;exitDy=100;exitPerimeter=0;entryX=0;entryY=0.5;entryDx=0;entryDy=0;" edge="1" parent="1" source="63" target="40">
                    <mxGeometry width="50" height="50" relative="1" as="geometry">
                        <mxPoint x="-60" y="585" as="sourcePoint"/>
                        <mxPoint x="-10" y="535" as="targetPoint"/>
                    </mxGeometry>
                </mxCell>
                <mxCell id="66" value="Matches are most commonly played with a best-of-1 or best-of-3 approach." style="shape=note;whiteSpace=wrap;html=1;backgroundOutline=1;darkOpacity=0.05;" vertex="1" parent="1">
                    <mxGeometry x="650" y="-192" width="134" height="118" as="geometry"/>
                </mxCell>
                <mxCell id="67" value="" style="endArrow=none;dashed=1;html=1;exitX=0.5;exitY=0;exitDx=0;exitDy=0;" edge="1" parent="1" source="7ByuXc6SaMkiPh27QTUW-1">
                    <mxGeometry width="50" height="50" relative="1" as="geometry">
                        <mxPoint x="670" y="-24" as="sourcePoint"/>
                        <mxPoint x="720" y="-74" as="targetPoint"/>
                    </mxGeometry>
                </mxCell>
                <mxCell id="68" value="Teams get the chance to exclude 3 maps (and pick 1)" style="shape=note;whiteSpace=wrap;html=1;backgroundOutline=1;darkOpacity=0.05;" vertex="1" parent="1">
                    <mxGeometry x="898" y="-210" width="134" height="118" as="geometry"/>
                </mxCell>
                <mxCell id="69" value="" style="endArrow=none;dashed=1;html=1;exitX=0.75;exitY=0;exitDx=0;exitDy=0;entryX=0.5;entryY=1;entryDx=0;entryDy=0;entryPerimeter=0;" edge="1" parent="1" source="G9HZLZbe01EVvVtUsMoQ-21" target="68">
                    <mxGeometry width="50" height="50" relative="1" as="geometry">
                        <mxPoint x="910" y="-42" as="sourcePoint"/>
                        <mxPoint x="960" y="-92" as="targetPoint"/>
                    </mxGeometry>
                </mxCell>
                <mxCell id="70" value="what is a flash assist?&lt;br&gt;&lt;br&gt;what is kddiff?&lt;br&gt;&lt;br&gt;what is adr?&lt;br&gt;&lt;br&gt;what is fkdiff?&lt;br&gt;&lt;br&gt;what is kast?" style="shape=note;whiteSpace=wrap;html=1;backgroundOutline=1;darkOpacity=0.05;" vertex="1" parent="1">
                    <mxGeometry x="-330" y="153" width="134" height="217" as="geometry"/>
                </mxCell>
                <mxCell id="71" value="what is rank_1 and rank_2?&lt;br&gt;&lt;br&gt;what is ct_1 ..?&lt;br&gt;&lt;br&gt;what is starting_ct?" style="shape=note;whiteSpace=wrap;html=1;backgroundOutline=1;darkOpacity=0.05;" vertex="1" parent="1">
                    <mxGeometry x="550" y="420.5" width="134" height="217" as="geometry"/>
                </mxCell>
                <mxCell id="72" value="The 'Match Team' class&amp;nbsp; is essentially a snapshot of a team's composition at the time of a given match.&lt;br&gt;&lt;br&gt;It prevents the implementation of a ternary association between Team, Player and Match." style="shape=note;whiteSpace=wrap;html=1;backgroundOutline=1;darkOpacity=0.05;" vertex="1" parent="1">
                    <mxGeometry x="550" y="-500" width="155" height="200" as="geometry"/>
                </mxCell>
                <mxCell id="73" value="" style="endArrow=none;dashed=1;html=1;exitX=0.5;exitY=1;exitDx=0;exitDy=0;exitPerimeter=0;entryX=0.75;entryY=0;entryDx=0;entryDy=0;" edge="1" parent="1" source="72" target="wm4JKY3V46k1_lSeWeFr-29">
                    <mxGeometry width="50" height="50" relative="1" as="geometry">
                        <mxPoint x="215.5" y="-142" as="sourcePoint"/>
                        <mxPoint x="446" as="targetPoint"/>
                    </mxGeometry>
                </mxCell>
                <mxCell id="74" value="consists_of" style="endArrow=none;html=1;entryX=0;entryY=0.5;entryDx=0;entryDy=0;exitX=1;exitY=0.5;exitDx=0;exitDy=0;" edge="1" parent="1" source="7ByuXc6SaMkiPh27QTUW-3" target="G9HZLZbe01EVvVtUsMoQ-22">
                    <mxGeometry width="50" height="50" relative="1" as="geometry">
                        <mxPoint x="780" y="160" as="sourcePoint"/>
                        <mxPoint x="830" y="110" as="targetPoint"/>
                    </mxGeometry>
                </mxCell>
                <mxCell id="G9HZLZbe01EVvVtUsMoQ-21" value=" Veto" style="swimlane;fontStyle=0;childLayout=stackLayout;horizontal=1;startSize=26;fillColor=none;horizontalStack=0;resizeParent=1;resizeParentMax=0;resizeLast=0;collapsible=1;marginBottom=0;" vertex="1" parent="1">
                    <mxGeometry x="860" y="56" width="140" height="78" as="geometry"/>
                </mxCell>
                <mxCell id="G9HZLZbe01EVvVtUsMoQ-22" value="+ pick: bool" style="text;strokeColor=none;fillColor=none;align=left;verticalAlign=top;spacingLeft=4;spacingRight=4;overflow=hidden;rotatable=0;points=[[0,0.5],[1,0.5]];portConstraint=eastwest;" vertex="1" parent="G9HZLZbe01EVvVtUsMoQ-21">
                    <mxGeometry y="26" width="140" height="26" as="geometry"/>
                </mxCell>
                <mxCell id="G9HZLZbe01EVvVtUsMoQ-42" value="+ order: number" style="text;strokeColor=none;fillColor=none;align=left;verticalAlign=top;spacingLeft=4;spacingRight=4;overflow=hidden;rotatable=0;points=[[0,0.5],[1,0.5]];portConstraint=eastwest;" vertex="1" parent="G9HZLZbe01EVvVtUsMoQ-21">
                    <mxGeometry y="52" width="140" height="26" as="geometry"/>
                </mxCell>
                <mxCell id="77" value="" style="endArrow=none;dashed=1;html=1;entryX=0;entryY=0.5;entryDx=0;entryDy=0;entryPerimeter=0;exitX=1;exitY=0.5;exitDx=0;exitDy=0;" edge="1" parent="1" source="47" target="71">
                    <mxGeometry width="50" height="50" relative="1" as="geometry">
                        <mxPoint x="485" y="549" as="sourcePoint"/>
                        <mxPoint x="535" y="499" as="targetPoint"/>
                    </mxGeometry>
                </mxCell>
                <mxCell id="81" value="picks_a" style="endArrow=none;html=1;entryX=0;entryY=0.001;entryDx=0;entryDy=0;entryPerimeter=0;exitX=0.25;exitY=0;exitDx=0;exitDy=0;" edge="1" parent="1" source="wm4JKY3V46k1_lSeWeFr-29" target="wm4JKY3V46k1_lSeWeFr-18">
                    <mxGeometry width="50" height="50" relative="1" as="geometry">
                        <mxPoint x="370" y="-40" as="sourcePoint"/>
                        <mxPoint x="330" y="860" as="targetPoint"/>
                        <Array as="points">
                            <mxPoint x="375" y="-50"/>
                            <mxPoint x="-410" y="-50"/>
                            <mxPoint x="-410" y="858"/>
                        </Array>
                    </mxGeometry>
                </mxCell>
                <mxCell id="82" value="1" style="text;html=1;align=left;verticalAlign=middle;resizable=0;points=[];autosize=1;" vertex="1" parent="1">
                    <mxGeometry x="318" y="832" width="20" height="20" as="geometry"/>
                </mxCell>
                <mxCell id="83" value="1" style="text;html=1;align=left;verticalAlign=middle;resizable=0;points=[];autosize=1;" vertex="1" parent="1">
                    <mxGeometry x="354" y="-27" width="20" height="20" as="geometry"/>
                </mxCell>
            </root>
        </mxGraphModel>
    </diagram>
    <diagram id="mDK-iOSUJ4EEzG38CXfD" name="Domain">
        <mxGraphModel dx="1426" dy="807" grid="1" gridSize="10" guides="1" tooltips="1" connect="1" arrows="1" fold="1" page="1" pageScale="1" pageWidth="827" pageHeight="1169" math="0" shadow="0">
            <root>
                <mxCell id="F4Qg4-rLtMt4b-RDzjlh-0"/>
                <mxCell id="F4Qg4-rLtMt4b-RDzjlh-1" parent="F4Qg4-rLtMt4b-RDzjlh-0"/>
                <mxCell id="T_5je9MMuBpcToETIVR1-0" value="Round" style="swimlane;fontStyle=0;childLayout=stackLayout;horizontal=1;startSize=26;fillColor=none;horizontalStack=0;resizeParent=1;resizeParentMax=0;resizeLast=0;collapsible=1;marginBottom=0;" vertex="1" parent="F4Qg4-rLtMt4b-RDzjlh-1">
                    <mxGeometry x="250" y="50" width="140" height="104" as="geometry"/>
                </mxCell>
                <mxCell id="T_5je9MMuBpcToETIVR1-1" value="+ field: type" style="text;strokeColor=none;fillColor=none;align=left;verticalAlign=top;spacingLeft=4;spacingRight=4;overflow=hidden;rotatable=0;points=[[0,0.5],[1,0.5]];portConstraint=eastwest;" vertex="1" parent="T_5je9MMuBpcToETIVR1-0">
                    <mxGeometry y="26" width="140" height="26" as="geometry"/>
                </mxCell>
                <mxCell id="T_5je9MMuBpcToETIVR1-2" value="+ field: type" style="text;strokeColor=none;fillColor=none;align=left;verticalAlign=top;spacingLeft=4;spacingRight=4;overflow=hidden;rotatable=0;points=[[0,0.5],[1,0.5]];portConstraint=eastwest;" vertex="1" parent="T_5je9MMuBpcToETIVR1-0">
                    <mxGeometry y="52" width="140" height="26" as="geometry"/>
                </mxCell>
                <mxCell id="T_5je9MMuBpcToETIVR1-3" value="+ field: type" style="text;strokeColor=none;fillColor=none;align=left;verticalAlign=top;spacingLeft=4;spacingRight=4;overflow=hidden;rotatable=0;points=[[0,0.5],[1,0.5]];portConstraint=eastwest;" vertex="1" parent="T_5je9MMuBpcToETIVR1-0">
                    <mxGeometry y="78" width="140" height="26" as="geometry"/>
                </mxCell>
                <mxCell id="F4Qg4-rLtMt4b-RDzjlh-6" value="Map" style="swimlane;fontStyle=0;childLayout=stackLayout;horizontal=1;startSize=26;fillColor=none;horizontalStack=0;resizeParent=1;resizeParentMax=0;resizeLast=0;collapsible=1;marginBottom=0;" vertex="1" parent="F4Qg4-rLtMt4b-RDzjlh-1">
                    <mxGeometry x="600" y="320" width="140" height="104" as="geometry"/>
                </mxCell>
                <mxCell id="F4Qg4-rLtMt4b-RDzjlh-7" value="+ field: type" style="text;strokeColor=none;fillColor=none;align=left;verticalAlign=top;spacingLeft=4;spacingRight=4;overflow=hidden;rotatable=0;points=[[0,0.5],[1,0.5]];portConstraint=eastwest;" vertex="1" parent="F4Qg4-rLtMt4b-RDzjlh-6">
                    <mxGeometry y="26" width="140" height="26" as="geometry"/>
                </mxCell>
                <mxCell id="F4Qg4-rLtMt4b-RDzjlh-8" value="+ field: type" style="text;strokeColor=none;fillColor=none;align=left;verticalAlign=top;spacingLeft=4;spacingRight=4;overflow=hidden;rotatable=0;points=[[0,0.5],[1,0.5]];portConstraint=eastwest;" vertex="1" parent="F4Qg4-rLtMt4b-RDzjlh-6">
                    <mxGeometry y="52" width="140" height="26" as="geometry"/>
                </mxCell>
                <mxCell id="F4Qg4-rLtMt4b-RDzjlh-9" value="+ field: type" style="text;strokeColor=none;fillColor=none;align=left;verticalAlign=top;spacingLeft=4;spacingRight=4;overflow=hidden;rotatable=0;points=[[0,0.5],[1,0.5]];portConstraint=eastwest;" vertex="1" parent="F4Qg4-rLtMt4b-RDzjlh-6">
                    <mxGeometry y="78" width="140" height="26" as="geometry"/>
                </mxCell>
                <mxCell id="F4Qg4-rLtMt4b-RDzjlh-14" value="Equipment" style="swimlane;fontStyle=0;childLayout=stackLayout;horizontal=1;startSize=26;fillColor=none;horizontalStack=0;resizeParent=1;resizeParentMax=0;resizeLast=0;collapsible=1;marginBottom=0;" vertex="1" parent="F4Qg4-rLtMt4b-RDzjlh-1">
                    <mxGeometry x="120" y="424" width="140" height="104" as="geometry"/>
                </mxCell>
                <mxCell id="F4Qg4-rLtMt4b-RDzjlh-15" value="+ field: type" style="text;strokeColor=none;fillColor=none;align=left;verticalAlign=top;spacingLeft=4;spacingRight=4;overflow=hidden;rotatable=0;points=[[0,0.5],[1,0.5]];portConstraint=eastwest;" vertex="1" parent="F4Qg4-rLtMt4b-RDzjlh-14">
                    <mxGeometry y="26" width="140" height="26" as="geometry"/>
                </mxCell>
                <mxCell id="F4Qg4-rLtMt4b-RDzjlh-16" value="+ field: type" style="text;strokeColor=none;fillColor=none;align=left;verticalAlign=top;spacingLeft=4;spacingRight=4;overflow=hidden;rotatable=0;points=[[0,0.5],[1,0.5]];portConstraint=eastwest;" vertex="1" parent="F4Qg4-rLtMt4b-RDzjlh-14">
                    <mxGeometry y="52" width="140" height="26" as="geometry"/>
                </mxCell>
                <mxCell id="F4Qg4-rLtMt4b-RDzjlh-17" value="+ field: type" style="text;strokeColor=none;fillColor=none;align=left;verticalAlign=top;spacingLeft=4;spacingRight=4;overflow=hidden;rotatable=0;points=[[0,0.5],[1,0.5]];portConstraint=eastwest;" vertex="1" parent="F4Qg4-rLtMt4b-RDzjlh-14">
                    <mxGeometry y="78" width="140" height="26" as="geometry"/>
                </mxCell>
                <mxCell id="F4Qg4-rLtMt4b-RDzjlh-2" value="Player" style="swimlane;fontStyle=0;childLayout=stackLayout;horizontal=1;startSize=26;fillColor=none;horizontalStack=0;resizeParent=1;resizeParentMax=0;resizeLast=0;collapsible=1;marginBottom=0;" vertex="1" parent="F4Qg4-rLtMt4b-RDzjlh-1">
                    <mxGeometry x="360" y="550" width="140" height="104" as="geometry"/>
                </mxCell>
                <mxCell id="F4Qg4-rLtMt4b-RDzjlh-3" value="+ field: type" style="text;strokeColor=none;fillColor=none;align=left;verticalAlign=top;spacingLeft=4;spacingRight=4;overflow=hidden;rotatable=0;points=[[0,0.5],[1,0.5]];portConstraint=eastwest;" vertex="1" parent="F4Qg4-rLtMt4b-RDzjlh-2">
                    <mxGeometry y="26" width="140" height="26" as="geometry"/>
                </mxCell>
                <mxCell id="F4Qg4-rLtMt4b-RDzjlh-4" value="+ field: type" style="text;strokeColor=none;fillColor=none;align=left;verticalAlign=top;spacingLeft=4;spacingRight=4;overflow=hidden;rotatable=0;points=[[0,0.5],[1,0.5]];portConstraint=eastwest;" vertex="1" parent="F4Qg4-rLtMt4b-RDzjlh-2">
                    <mxGeometry y="52" width="140" height="26" as="geometry"/>
                </mxCell>
                <mxCell id="F4Qg4-rLtMt4b-RDzjlh-5" value="+ field: type" style="text;strokeColor=none;fillColor=none;align=left;verticalAlign=top;spacingLeft=4;spacingRight=4;overflow=hidden;rotatable=0;points=[[0,0.5],[1,0.5]];portConstraint=eastwest;" vertex="1" parent="F4Qg4-rLtMt4b-RDzjlh-2">
                    <mxGeometry y="78" width="140" height="26" as="geometry"/>
                </mxCell>
                <mxCell id="Y8s3xDMVdJ4wPxv5jSDO-0" value="Match" style="swimlane;fontStyle=0;childLayout=stackLayout;horizontal=1;startSize=26;fillColor=none;horizontalStack=0;resizeParent=1;resizeParentMax=0;resizeLast=0;collapsible=1;marginBottom=0;" vertex="1" parent="F4Qg4-rLtMt4b-RDzjlh-1">
                    <mxGeometry x="390" y="370" width="140" height="104" as="geometry"/>
                </mxCell>
                <mxCell id="Y8s3xDMVdJ4wPxv5jSDO-1" value="+ field: type" style="text;strokeColor=none;fillColor=none;align=left;verticalAlign=top;spacingLeft=4;spacingRight=4;overflow=hidden;rotatable=0;points=[[0,0.5],[1,0.5]];portConstraint=eastwest;" vertex="1" parent="Y8s3xDMVdJ4wPxv5jSDO-0">
                    <mxGeometry y="26" width="140" height="26" as="geometry"/>
                </mxCell>
                <mxCell id="Y8s3xDMVdJ4wPxv5jSDO-2" value="+ field: type" style="text;strokeColor=none;fillColor=none;align=left;verticalAlign=top;spacingLeft=4;spacingRight=4;overflow=hidden;rotatable=0;points=[[0,0.5],[1,0.5]];portConstraint=eastwest;" vertex="1" parent="Y8s3xDMVdJ4wPxv5jSDO-0">
                    <mxGeometry y="52" width="140" height="26" as="geometry"/>
                </mxCell>
                <mxCell id="Y8s3xDMVdJ4wPxv5jSDO-3" value="+ field: type" style="text;strokeColor=none;fillColor=none;align=left;verticalAlign=top;spacingLeft=4;spacingRight=4;overflow=hidden;rotatable=0;points=[[0,0.5],[1,0.5]];portConstraint=eastwest;" vertex="1" parent="Y8s3xDMVdJ4wPxv5jSDO-0">
                    <mxGeometry y="78" width="140" height="26" as="geometry"/>
                </mxCell>
                <mxCell id="T_5je9MMuBpcToETIVR1-4" value="Match Map" style="swimlane;fontStyle=0;childLayout=stackLayout;horizontal=1;startSize=26;fillColor=none;horizontalStack=0;resizeParent=1;resizeParentMax=0;resizeLast=0;collapsible=1;marginBottom=0;" vertex="1" parent="F4Qg4-rLtMt4b-RDzjlh-1">
                    <mxGeometry x="390" y="180" width="140" height="104" as="geometry"/>
                </mxCell>
                <mxCell id="T_5je9MMuBpcToETIVR1-5" value="+ field: type" style="text;strokeColor=none;fillColor=none;align=left;verticalAlign=top;spacingLeft=4;spacingRight=4;overflow=hidden;rotatable=0;points=[[0,0.5],[1,0.5]];portConstraint=eastwest;" vertex="1" parent="T_5je9MMuBpcToETIVR1-4">
                    <mxGeometry y="26" width="140" height="26" as="geometry"/>
                </mxCell>
                <mxCell id="T_5je9MMuBpcToETIVR1-6" value="+ field: type" style="text;strokeColor=none;fillColor=none;align=left;verticalAlign=top;spacingLeft=4;spacingRight=4;overflow=hidden;rotatable=0;points=[[0,0.5],[1,0.5]];portConstraint=eastwest;" vertex="1" parent="T_5je9MMuBpcToETIVR1-4">
                    <mxGeometry y="52" width="140" height="26" as="geometry"/>
                </mxCell>
                <mxCell id="T_5je9MMuBpcToETIVR1-7" value="+ field: type" style="text;strokeColor=none;fillColor=none;align=left;verticalAlign=top;spacingLeft=4;spacingRight=4;overflow=hidden;rotatable=0;points=[[0,0.5],[1,0.5]];portConstraint=eastwest;" vertex="1" parent="T_5je9MMuBpcToETIVR1-4">
                    <mxGeometry y="78" width="140" height="26" as="geometry"/>
                </mxCell>
            </root>
        </mxGraphModel>
    </diagram>
</mxfile>